<svg id="visual" viewBox="0 0 900 450" width="900" height="450" xmlns="http://www.w3.org/2000/svg" xmlns:xlink="http://www.w3.org/1999/xlink" version="1.1"><path d="M0 391L30 391.5C60 392 120 393 180 397.2C240 401.3 300 408.7 360 408.8C420 409 480 402 540 401.8C600 401.7 660 408.3 720 411C780 413.7 840 412.3 870 411.7L900 411L900 451L870 451C840 451 780 451 720 451C660 451 600 451 540 451C480 451 420 451 360 451C300 451 240 451 180 451C120 451 60 451 30 451L0 451Z" fill="#003748" stroke-linecap="round" stroke-linejoin="miter"></path></svg>