<svg id="Layer_1" data-name="Layer 1" xmlns="http://www.w3.org/2000/svg" viewBox="0 0 392.97 360.84"><defs><style>.cls-1{fill:none;stroke:#fff;stroke-miterlimit:10;stroke-width:16px;}.cls-2,.cls-3{fill:#fff;}.cls-3{font-size:85.2px;font-family:AdobeArabic-Regular, Adobe Arabic;}</style></defs><rect class="cls-1" x="406.97" y="363.82" width="375.51" height="116.67" rx="33.65" transform="translate(-492.96 -57.45) rotate(-16.33)"/><path class="cls-2" d="M462.8,380.24c17.8-55.9,70.2-96.5,131.92-96.5a137.83,137.83,0,0,1,88.35,31.94l46.23-13.55a180,180,0,0,0-134.58-60.39c-89.83,0-164.54,66-178.18,152.05Z" transform="translate(-398.23 -241.74)"/><path class="cls-2" d="M726.64,464.08c-17.8,55.9-70.2,96.5-131.92,96.5a137.83,137.83,0,0,1-88.35-31.94l-46.23,13.54a180,180,0,0,0,134.58,60.4c89.83,0,164.54-66,178.18-152.05Z" transform="translate(-398.23 -241.74)"/><path class="cls-2" d="M474.56,431.32l.38-.11q.57-.16,1.47,2.85l4,13.6,4.46,14.3q1.71,3,4.17,2.26c1-.3,1.55-.33,1.62-.08l3.15,10.58-.26.49-1.52.45a14.27,14.27,0,0,1-5.75.69q-3.68,13.42-14.57,16.68l-.38.11q-9.83,2.92-17.11-5L453,485.25l-.39-1.32a23.81,23.81,0,0,1-.18-13.73l.37-.11q2.13.24,2.4,1.14a26.23,26.23,0,0,0,1,6.89q2,6.61,11.61,3.74,12.26-4.42,10.89-9l-.57-1.89q-2.62-8.82-10.19-28Q467.44,441.25,474.56,431.32Z" transform="translate(-398.23 -241.74)"/><path class="cls-2" d="M502.5,440.89l.75-.22q4.92-1.47,11.69,6.8a26.07,26.07,0,0,1,3.33,7l.28.94q2.55,8.55-2.1,13l-2.72,1.23q-6.51,1.94-13.85-1.64-2.13,6-5.34,6.94l-.94.28-.49-.26-3.21-10.77c-.09-.28.49-.66,1.72-1.13Q495.28,460,497,448.7,499.18,441.88,502.5,440.89Zm-1.2,16q2.1,2,10.43,1.21c1.29-.38,1.84-1.1,1.63-2.13-.65-2.17-3.36-3.22-8.13-3.13l-.75.22A4.35,4.35,0,0,0,501.3,456.88Z" transform="translate(-398.23 -241.74)"/><path class="cls-2" d="M523,416.89l.19-.05c.5-.15,1.17,1.16,2,3.93l4.73,15.86,3.5,11.09c1.1,1.73,2.27,2.41,3.49,2l1.7-.51.49.27,3.21,10.76-.27.49-.75.23q-12.84,3.83-16.73-9.21l-8.27-23.65q-.35-1.14,5.55-9.67Z" transform="translate(-398.23 -241.74)"/><path class="cls-2" d="M555.44,407c.93-.11,1.45,0,1.55.36q1.74,9.15-.19,9.72-12.16,7.17-15.14,11.3l-.14.24.06.19a68.29,68.29,0,0,1,15.19,4.73q10.69,7.1,14.14,6.07c.38-.11.61,0,.68.21l3.21,10.77-.27.49q-4.62,1.38-10.71-4.22l-.38.12q.88,3-4.28,7-5.07,3.15-17.3,6.8l-.25-.13-3.26-11,.26-.49,8.88-2.64q8.61-3.54,8-5.48l-.11-.38q-.52-1.78-12.26-2.51-3.2-.35-6.77-12.38-1.68-5.62,12.58-15.06A20.17,20.17,0,0,1,555.44,407Z" transform="translate(-398.23 -241.74)"/><path class="cls-2" d="M572.55,402.34l.55.46a18.34,18.34,0,0,0,5.4,8.46l.17.57q-1,1.4.2,5.5l.17.56,5.42,17.51q2.49,8.36-2.84,12.57a24.51,24.51,0,0,1-6.33,2.91l-.76.23-.49-.27-3.15-10.58c0-.15,1.37-.92,4.26-2.29a4.48,4.48,0,0,0,.28-3.17q-.88-3-8.43-20.73l-.06-.18c-.76-2.59.15-5.26,2.76-8C570.85,403.74,571.8,402.57,572.55,402.34Z" transform="translate(-398.23 -241.74)"/><path class="cls-2" d="M589.87,397l.19-.06c.51-.15,1.17,1.16,2,3.93l4.72,15.87,3.51,11.09q1.65,2.6,3.49,2l1.7-.5.49.26,3.21,10.77-.27.49-.76.22q-12.84,3.82-16.72-9.2l-8.28-23.65q-.33-1.14,5.55-9.68Z" transform="translate(-398.23 -241.74)"/><path class="cls-2" d="M608.78,406.77l.38-.11q4.32,4.15,11.22,15.58l.39,1.32q1.69,5.67-3.59,12.79a11.22,11.22,0,0,1-4.92,3.52l-3.4,1-.49-.26L605.22,430l.27-.49,3.21-1c3.15-.93,4.55-2,4.21-3.1q-.25-.86-7.06-9.21l-.47-.89Q604.81,413.46,608.78,406.77Zm7.29,36.9.56-.17c.82-.24,2.75.69,5.77,2.81l.36.51q.29.94-3,5.83l-.51.35q-.94.28-5.83-3l-.28-.95Q612.94,448.35,616.07,443.67Z" transform="translate(-398.23 -241.74)"/><path class="cls-2" d="M652.16,386q6.81-2,12.52,10.25l-.14.25-.19.06c-4.39.07-7.21.29-8.43.66l-.57.17c-3.15.93-4.59,3-4.32,6.22l.12.38c.48,1.63,2.43,1.94,5.83.93l1.88-.56a36.43,36.43,0,0,0,8.81-4.27c.38-.11.64.09.79.59q.78,10-.77,10.51.16.57-8.4,5-7.5,5.16-5.44,12.11l.06.19q2.19,7.37,12,7.93l4.32-.67a43,43,0,0,0,7.16-3.57c1,.65,1.6,1.23,1.75,1.74l.06.19q.42,1.41-8.81,6.32l-3,1.09-.57.17q-11.34,3.38-19.1-3.36a14.82,14.82,0,0,1-3.86-6l-.45-1.51q-1.86-6.28,4.64-16.19a19.42,19.42,0,0,1-2.35-4.44q-2.14-7.23.13-17.52Q648.19,387.22,652.16,386Z" transform="translate(-398.23 -241.74)"/><path class="cls-2" d="M676.05,371.31l.19-.05c.5-.15,1.17,1.16,2,3.93L683,391.05l3.51,11.09c1.09,1.73,2.26,2.41,3.49,2.05l1.69-.51.5.27,3.2,10.76-.26.49-.76.23q-12.84,3.82-16.72-9.21l-8.28-23.65q-.35-1.12,5.55-9.67Z" transform="translate(-398.23 -241.74)"/><path class="cls-2" d="M701.58,385.92l.25.13,1.07,9.14.29.95c.78,2.64,2.25,3.64,4.39,3l1.13-.34.49.26,3.15,10.58-.26.49-2.08.62a26.21,26.21,0,0,1-7,.83c-.37.94-1.52,1.69-3.44,2.26l-4.53,1.35-.49-.26-3.15-10.58.26-.49,2.27-.67q3.45-1,3.61-3.75l1.67-11C700.18,387,701,386.11,701.58,385.92Zm3.73,31.17.57-.17c.82-.24,2.82.74,6,2.94l.17.57q-2.34,5.63-3.56,6c-.63.18-2.58-.82-5.83-3l-.28-.94Z" transform="translate(-398.23 -241.74)"/><path class="cls-2" d="M721,375.82l.76-.22q4.9-1.47,11.69,6.8a26.34,26.34,0,0,1,3.32,7l.28.94q2.55,8.55-2.1,13l-2.72,1.23q-6.51,1.94-13.85-1.64-2.13,6-5.34,6.94l-.94.28-.49-.26-3.21-10.77c-.08-.28.49-.66,1.72-1.13q3.66-3.09,5.39-14.35Q717.69,376.8,721,375.82Zm-1.2,16q2.1,2,10.43,1.21c1.3-.39,1.84-1.1,1.63-2.13-.65-2.17-3.36-3.22-8.13-3.13L723,388A4.35,4.35,0,0,0,719.79,391.81Z" transform="translate(-398.23 -241.74)"/><text class="cls-3" transform="translate(301.7 171.06)">ُ</text></svg>