<svg id="visual" viewBox="0 0 900 600" width="900" height="600" xmlns="http://www.w3.org/2000/svg" xmlns:xlink="http://www.w3.org/1999/xlink" version="1.1"><path d="M0 522L30 522.5C60 523 120 524 180 529.5C240 535 300 545 360 545.3C420 545.7 480 536.3 540 536.2C600 536 660 545 720 548.7C780 552.3 840 550.7 870 549.8L900 549L900 601L870 601C840 601 780 601 720 601C660 601 600 601 540 601C480 601 420 601 360 601C300 601 240 601 180 601C120 601 60 601 30 601L0 601Z" fill="#fff" stroke-linecap="round" stroke-linejoin="miter"></path></svg>